<?xml version="1.0" encoding="utf-8"?>
<!-- Generator: Adobe Illustrator 16.0.0, SVG Export Plug-In . SVG Version: 6.00 Build 0)  -->
<!DOCTYPE svg PUBLIC "-//W3C//DTD SVG 1.1//EN" "http://www.w3.org/Graphics/SVG/1.1/DTD/svg11.dtd">
<svg version="1.1" id="图层_1" xmlns="http://www.w3.org/2000/svg" xmlns:xlink="http://www.w3.org/1999/xlink" x="0px" y="0px"
	 width="200px" height="228px" viewBox="0 0 200 228" enable-background="new 0 0 200 228" xml:space="preserve">
<path d="M191.752,72.088c1.162-0.511,2.249-1.114,3.262-1.809c1.012-0.693,1.88-1.495,2.604-2.403
	c0.281-0.355,0.828-1.271,1.4-2.325c0.64,2.198,0.99,4.514,0.995,6.904h0.001v5.385c-3.298-1.462-10.893-4.833-10.936-4.865
	C189.263,72.929,190.605,72.561,191.752,72.088z M185.768,49.661l-2.56,10.507l5.801,1.361l0.118-0.013
	c0-0.021-0.003-0.041-0.003-0.062c0-1.906,1.542-3.45,3.444-3.45c1.902,0,3.445,1.544,3.445,3.45c0,1.025-0.449,1.943-1.159,2.575
	c0.003,0.005,0.007,0.009,0.011,0.012c-0.032,0.022-0.063,0.043-0.095,0.064c-0.164,0.138-0.341,0.257-0.529,0.362
	c-5.515,3.731-6.454,2.933-13.274,4.903l-1.101,4.516L200,84v76c0,9.416-4.256,17.196-11.984,21.463v0.051l-75.082,43.33v-0.124
	c-3.656,2.095-7.898,3.296-12.427,3.296c-4.529,0-8.771-1.201-12.427-3.296v0.124l-75.081-43.33v-0.049
	C5.262,177.199,0,168.93,0,159.512V72.505h0.013C0.009,72.338,0,72.173,0,72.005c0-10.286,6.276-19.031,15.197-22.771L100.507,0
	l86.022,49.645C186.271,49.646,186.011,49.646,185.768,49.661z M93.09,214.124c2.437,0.96,5.083,1.502,7.861,1.502
	c4.256,0,8.219-1.241,11.557-3.374v0.051l8.166-4.837l-28.94-17.298c-3.038-1.815-6.161-3.57-9.367-5.266
	c-3.206-1.694-6.116-3.189-8.726-4.49c-3.06-1.532-6.037-2.979-8.931-4.339l0.374-0.221l66.486,25.16l16.552-9.803l-42.192-39.685
	l0.42-0.25c2.271,1.729,4.721,3.51,7.352,5.341c2.244,1.563,4.798,3.295,7.662,5.19c2.862,1.896,5.814,3.754,8.853,5.569
	l28.94,17.297l20.947-12.405L99.83,124.293l-28.802,17.059l36.451,33.525l-0.374,0.221L50.83,153.314L20.953,171.01L93.09,214.124z
	 M144.637,37.379L134.01,85.48l-13.734-62.166L100.48,11.885L67.468,30.944l-18.37,57.974l-6.234-43.769L22.001,57.315
	c-6.288,3.752-10.5,10.62-10.5,18.475c0,0.072,0.004,0.145,0.005,0.217l8.293,83.518l54.344-31.375L91.84,75.672l8.313,37.629
	l60.052,34.672l19.908-90.111L144.637,37.379z"/>
</svg>
