<svg xmlns="http://www.w3.org/2000/svg" width="200" height="228"><path d="M191.752 72.088c1.162-.511 2.249-1.114 3.262-1.809 1.012-.693 1.88-1.495 2.604-2.403.281-.355.828-1.271 1.4-2.325.64 2.198.99 4.514.995 6.904h.001v5.385c-3.298-1.462-10.893-4.833-10.936-4.865.185-.046 1.527-.414 2.674-.887zm-5.984-22.427l-2.56 10.507 5.801 1.361.118-.013-.003-.062c0-1.906 1.542-3.45 3.444-3.45s3.445 1.544 3.445 3.45c0 1.025-.449 1.943-1.159 2.575l.011.012-.095.064c-.164.138-.341.257-.529.362-5.515 3.731-6.454 2.933-13.274 4.903l-1.101 4.516 20.134 10.114v76c0 9.416-4.256 17.196-11.984 21.463v.051l-75.082 43.33v-.124c-3.656 2.095-7.898 3.296-12.427 3.296s-8.771-1.201-12.427-3.296v.124l-75.081-43.33v-.049c-7.737-4.266-12.999-12.535-12.999-21.953v-87.007h.013l-.013-.5c0-10.286 6.276-19.031 15.197-22.771l85.31-49.234 86.022 49.645c-.258.001-.518.001-.761.016zm-92.678 164.463c2.437.96 5.083 1.502 7.861 1.502 4.256 0 8.219-1.241 11.557-3.374v.051l8.166-4.837-28.94-17.298c-3.038-1.815-6.161-3.57-9.367-5.266-3.206-1.694-6.116-3.189-8.726-4.49-3.06-1.532-6.037-2.979-8.931-4.339l.374-.221 66.486 25.16 16.552-9.803-42.192-39.685.42-.25c2.271 1.729 4.721 3.51 7.352 5.341 2.244 1.563 4.798 3.295 7.662 5.19 2.862 1.896 5.814 3.754 8.853 5.569l28.94 17.297 20.947-12.405-80.274-47.973-28.802 17.059 36.451 33.525-.374.221-56.275-21.784-29.877 17.696 72.137 43.114zm51.547-176.745l-10.627 48.101-13.734-62.166-19.796-11.429-33.012 19.059-18.37 57.974-6.234-43.769-20.863 12.166c-6.288 3.752-10.5 10.62-10.5 18.475l.005.217 8.293 83.518 54.344-31.375 17.697-52.478 8.313 37.629 60.052 34.672 19.908-90.111-35.476-20.483z"/></svg>