<svg xmlns="http://www.w3.org/2000/svg" width="240" height="774"><path fill="#fff" d="M230.087 586.626c1.395-.614 2.698-1.339 3.913-2.174 1.215-.833 2.257-1.796 3.126-2.888.336-.426.992-1.527 1.679-2.793.769 2.641 1.188 5.424 1.195 8.296v6.471c-3.957-1.757-13.07-5.808-13.122-5.847.223-.054 1.833-.497 3.209-1.065zm-7.181-26.95l-3.071 12.626 6.96 1.636.142-.016-.003-.074c0-2.291 1.85-4.146 4.133-4.146 2.282 0 4.134 1.855 4.134 4.146 0 1.231-.539 2.334-1.392 3.094l.014.015-.115.077c-.196.166-.407.309-.634.435-6.617 4.483-7.744 3.524-15.928 5.892l-1.32 5.428 24.158 12.153v91.327c0 11.315-5.106 20.664-14.38 25.791v.062l-90.093 52.068v-.147c-4.387 2.516-9.476 3.959-14.911 3.959-5.434 0-10.523-1.443-14.91-3.959v.147l-90.092-52.07v-.059c-9.284-5.125-15.598-15.063-15.598-26.38v-104.554h.016l-.016-.601c0-12.36 7.531-22.868 18.235-27.364l102.365-59.162 103.221 59.657c-.31.001-.622.001-.915.019zm-111.206 197.631c2.925 1.154 6.099 1.806 9.433 1.806 5.107 0 9.862-1.492 13.867-4.055v.062l9.799-5.813-34.726-20.786c-3.646-2.18-7.393-4.29-11.239-6.328-3.848-2.036-7.339-3.832-10.471-5.396-3.672-1.841-7.244-3.579-10.717-5.214l.449-.267 79.778 30.234 19.86-11.779-50.628-47.689.504-.3c2.726 2.078 5.665 4.219 8.823 6.419 2.691 1.877 5.757 3.96 9.193 6.236 3.435 2.278 6.976 4.511 10.622 6.692l34.727 20.785 25.134-14.907-96.321-57.647-34.561 20.499 43.738 40.286-.448.266-67.526-26.176-35.85 21.264 86.56 51.808zm61.852-212.39l-12.751 57.802-16.48-74.703-23.753-13.733-39.612 22.901-22.042 69.666-7.48-52.596-25.034 14.619c-7.545 4.51-12.599 12.762-12.599 22.201l.006.261 9.951 100.362 65.209-37.703 21.234-63.062 9.976 45.218 72.058 41.664 23.888-108.283-42.571-24.614z"/><path d="M230.087 86.626c1.395-.614 2.698-1.338 3.913-2.174 1.215-.833 2.257-1.796 3.126-2.888.336-.426.992-1.527 1.679-2.793.769 2.641 1.188 5.424 1.195 8.296v6.471c-3.957-1.757-13.07-5.808-13.122-5.846.223-.055 1.833-.498 3.209-1.066zm-7.181-26.95l-3.071 12.625 6.96 1.635.142-.015-.003-.074c0-2.291 1.85-4.146 4.133-4.146 2.282 0 4.134 1.855 4.134 4.146 0 1.231-.539 2.334-1.392 3.094l.014.015-.115.077c-.196.166-.407.308-.634.435-6.617 4.483-7.744 3.524-15.928 5.892l-1.32 5.427 24.158 12.153v91.327c0 11.315-5.106 20.664-14.38 25.791v.062l-90.093 52.068v-.147c-4.387 2.516-9.476 3.959-14.911 3.959-5.434 0-10.523-1.443-14.91-3.959v.147l-90.092-52.068v-.059c-9.284-5.125-15.598-15.063-15.598-26.38v-104.554h.016l-.016-.601c0-12.36 7.531-22.869 18.235-27.364l102.365-59.162 103.22 59.657c-.309.001-.621.001-.914.019zm-111.206 197.631c2.925 1.154 6.099 1.806 9.433 1.806 5.107 0 9.862-1.492 13.867-4.055v.062l9.799-5.813-34.726-20.786c-3.646-2.18-7.393-4.29-11.239-6.328-3.847-2.036-7.339-3.832-10.471-5.396-3.672-1.841-7.244-3.579-10.717-5.214l.449-.267 79.779 30.234 19.86-11.779-50.628-47.689.504-.3c2.726 2.078 5.665 4.219 8.823 6.419 2.691 1.877 5.757 3.96 9.193 6.236 3.435 2.278 6.976 4.511 10.622 6.692l34.727 20.785 25.134-14.907-96.321-57.647-34.561 20.499 43.738 40.286-.448.266-67.526-26.176-35.85 21.264 86.559 51.808zm61.852-212.39l-12.751 57.802-16.48-74.703-23.753-13.733-39.612 22.901-22.042 69.666-7.48-52.596-25.034 14.62c-7.546 4.508-12.6 12.761-12.6 22.201l.006.26 9.951 100.362 65.209-37.703 21.234-63.061 9.976 45.218 72.058 41.664 23.888-108.284-42.57-24.614z"/></svg>