<?xml version="1.0" encoding="utf-8"?>
<!-- Generator: Adobe Illustrator 16.0.0, SVG Export Plug-In . SVG Version: 6.00 Build 0)  -->
<!DOCTYPE svg PUBLIC "-//W3C//DTD SVG 1.1//EN" "http://www.w3.org/Graphics/SVG/1.1/DTD/svg11.dtd">
<svg version="1.1" xmlns="http://www.w3.org/2000/svg" xmlns:xlink="http://www.w3.org/1999/xlink" x="0px" y="0px" width="240px"
	 height="774px" viewBox="0 0 240 774" enable-background="new 0 0 240 774" xml:space="preserve">
<g id="图层_1">
	<path fill="#FFFFFF" d="M230.087,586.626c1.395-0.614,2.698-1.339,3.913-2.174c1.215-0.833,2.257-1.796,3.126-2.888
		c0.336-0.426,0.992-1.527,1.679-2.793c0.769,2.641,1.188,5.424,1.195,8.296l0,0v6.471c-3.957-1.757-13.07-5.808-13.122-5.847
		C227.101,587.637,228.711,587.194,230.087,586.626z M222.906,559.676l-3.071,12.626l6.96,1.636l0.142-0.016
		c0-0.025-0.003-0.049-0.003-0.074c0-2.291,1.85-4.146,4.133-4.146c2.282,0,4.134,1.855,4.134,4.146
		c0,1.231-0.539,2.334-1.392,3.094c0.004,0.006,0.009,0.012,0.014,0.015c-0.039,0.026-0.076,0.052-0.115,0.077
		c-0.196,0.166-0.407,0.309-0.634,0.435c-6.617,4.483-7.744,3.524-15.928,5.892l-1.32,5.428l24.158,12.153v91.327
		c0,11.315-5.106,20.664-14.38,25.791v0.062l-90.093,52.068v-0.147c-4.387,2.516-9.476,3.959-14.911,3.959
		c-5.434,0-10.523-1.443-14.91-3.959v0.147L15.598,718.12v-0.059C6.314,712.936,0,702.998,0,691.681V587.127h0.016
		C0.011,586.926,0,586.729,0,586.526c0-12.36,7.531-22.868,18.235-27.364L120.6,500l103.221,59.657
		C223.511,559.658,223.199,559.658,222.906,559.676z M111.7,757.307c2.925,1.154,6.099,1.806,9.433,1.806
		c5.107,0,9.862-1.492,13.867-4.055v0.062l9.799-5.813l-34.726-20.786c-3.646-2.18-7.393-4.29-11.239-6.328
		c-3.848-2.036-7.339-3.832-10.471-5.396c-3.672-1.841-7.244-3.579-10.717-5.214l0.449-0.267l79.778,30.234l19.86-11.779
		l-50.628-47.689l0.504-0.3c2.726,2.078,5.665,4.219,8.823,6.419c2.691,1.877,5.757,3.96,9.193,6.236
		c3.435,2.278,6.976,4.511,10.622,6.692l34.727,20.785l25.134-14.907l-96.321-57.647l-34.561,20.499l43.738,40.286l-0.448,0.266
		l-67.526-26.176l-35.85,21.264L111.7,757.307z M173.552,544.917l-12.751,57.802l-16.48-74.703l-23.753-13.733l-39.612,22.901
		L58.914,606.85l-7.48-52.596l-25.034,14.619c-7.545,4.51-12.599,12.762-12.599,22.201c0,0.087,0.004,0.175,0.006,0.261
		l9.951,100.362l65.209-37.703l21.234-63.062l9.976,45.218l72.058,41.664l23.888-108.283L173.552,544.917z"/>
</g>
<g id="图层_2">
	<path d="M230.087,86.626c1.395-0.614,2.698-1.338,3.913-2.174c1.215-0.833,2.257-1.796,3.126-2.888
		c0.336-0.426,0.992-1.527,1.679-2.793c0.769,2.641,1.188,5.424,1.195,8.296l0,0v6.471c-3.957-1.757-13.07-5.808-13.122-5.846
		C227.101,87.637,228.711,87.194,230.087,86.626z M222.906,59.676l-3.071,12.625l6.96,1.635l0.142-0.015
		c0-0.025-0.003-0.049-0.003-0.074c0-2.291,1.85-4.146,4.133-4.146c2.282,0,4.134,1.855,4.134,4.146
		c0,1.231-0.539,2.334-1.392,3.094c0.004,0.006,0.009,0.011,0.014,0.015c-0.039,0.026-0.076,0.052-0.115,0.077
		c-0.196,0.166-0.407,0.308-0.634,0.435c-6.617,4.483-7.744,3.524-15.928,5.892l-1.32,5.427l24.158,12.153v91.327
		c0,11.315-5.106,20.664-14.38,25.791v0.062l-90.093,52.068v-0.147c-4.387,2.516-9.476,3.959-14.911,3.959
		c-5.434,0-10.523-1.443-14.91-3.959v0.147L15.598,218.12v-0.059C6.314,212.936,0,202.998,0,191.681V87.127h0.016
		C0.011,86.926,0,86.728,0,86.526c0-12.36,7.531-22.869,18.235-27.364L120.6,0L223.82,59.657
		C223.511,59.658,223.199,59.658,222.906,59.676z M111.7,257.307c2.925,1.154,6.099,1.806,9.433,1.806
		c5.107,0,9.862-1.492,13.867-4.055v0.062l9.799-5.813l-34.726-20.786c-3.646-2.18-7.393-4.29-11.239-6.328
		c-3.847-2.036-7.339-3.832-10.471-5.396c-3.672-1.841-7.244-3.579-10.717-5.214l0.449-0.267l79.779,30.234l19.86-11.779
		l-50.628-47.689l0.504-0.3c2.726,2.078,5.665,4.219,8.823,6.419c2.691,1.877,5.757,3.96,9.193,6.236
		c3.435,2.278,6.976,4.511,10.622,6.692l34.727,20.785l25.134-14.907l-96.321-57.647l-34.561,20.499l43.738,40.286l-0.448,0.266
		l-67.526-26.176l-35.85,21.264L111.7,257.307z M173.552,44.917l-12.751,57.802l-16.48-74.703l-23.753-13.733L80.956,37.184
		L58.914,106.85l-7.48-52.596l-25.034,14.62C18.854,73.382,13.8,81.635,13.8,91.075c0,0.086,0.004,0.174,0.006,0.26l9.951,100.362
		l65.209-37.703L110.2,90.933l9.976,45.218l72.058,41.664l23.888-108.284L173.552,44.917z"/>
</g>
</svg>
